<svg width="526" height="232" viewBox="0 0 526 232" fill="none" xmlns="http://www.w3.org/2000/svg">
<path d="M105.378 187.426H102.208C78.514 187.426 57.6051 173.182 48.9411 151.123C47.8116 148.261 49.2235 145.015 52.0987 143.899C54.961 142.769 58.2083 144.181 59.325 147.055C66.2946 164.802 83.1347 176.274 102.208 176.274H105.378C108.459 176.274 110.962 178.777 110.962 181.856C110.962 184.936 108.459 187.426 105.378 187.426Z" fill="#A2C61F"/>
<path d="M180.979 89.0149C177.899 89.0149 175.396 86.5126 175.396 83.4328V58.0634C175.396 57.0625 174.536 56.254 173.471 56.254H147.903C144.822 56.254 142.319 53.7518 142.319 50.672C142.319 47.5923 144.822 45.09 147.903 45.09H173.471C180.684 45.09 186.55 50.903 186.55 58.0506V83.42C186.563 86.5254 184.06 89.0149 180.979 89.0149Z" fill="#575756"/>
<path d="M50.5834 89.0106C47.5029 89.0106 45 86.5083 45 83.4286V58.0591C45 50.9115 50.8658 45.0985 58.0793 45.0985H83.6474C86.7279 45.0985 89.2308 47.6008 89.2308 50.6806C89.2308 53.7603 86.7279 56.2626 83.6474 56.2626H58.0793C57.0139 56.2626 56.154 57.071 56.154 58.0719V83.4414C56.1668 86.5211 53.6639 89.0106 50.5834 89.0106Z" fill="#575756"/>
<path d="M173.471 187.426H147.903C144.822 187.426 142.319 184.923 142.319 181.844C142.319 178.764 144.822 176.262 147.903 176.262H173.471C174.536 176.262 175.396 175.453 175.396 174.452V149.083C175.396 146.003 177.899 143.501 180.979 143.501C184.06 143.501 186.563 146.003 186.563 149.083V174.452C186.563 181.613 180.684 187.426 173.471 187.426Z" fill="#575756"/>
<path d="M217.828 78.1715C217.828 68.3419 218.303 65.0312 219.625 60.7837C223.027 50.2997 231.344 45 242.588 45C252.227 45 259.312 49.44 262.534 55.2017C263.291 56.5234 263.766 57.8451 263.766 59.3593C263.766 63.0422 260.93 65.5958 257.438 65.5958C255.077 65.5958 253.19 64.6462 251.29 62.0028C248.929 58.7947 246.657 57.2805 242.588 57.2805C237.39 57.2805 234.36 60.0266 232.948 64.3639C232.191 66.7251 231.909 68.9964 231.909 78.1586C231.909 87.3209 232.191 89.5922 232.948 91.9533C234.36 96.3035 237.39 99.0368 242.588 99.0368C246.657 99.0368 248.916 97.5226 251.29 94.3145C253.177 91.671 255.077 90.7214 257.438 90.7214C260.93 90.7214 263.766 93.2751 263.766 96.9579C263.766 98.4721 263.291 99.7939 262.534 101.116C259.325 106.877 252.227 111.317 242.588 111.317C231.344 111.317 223.027 106.03 219.625 95.5335C218.303 91.2989 217.828 88.001 217.828 78.1715Z" fill="#333333"/>
<path d="M296.947 106.044H296.857C294.585 108.969 290.619 111.331 284.753 111.331C274.639 111.331 269.441 104.247 269.441 94.315V70.9859C269.441 66.6358 272.277 63.9923 276.154 63.9923C279.94 63.9923 282.674 66.6358 282.674 70.9859V91.7742C282.674 96.7788 284.946 100.09 289.669 100.09C294.303 100.09 296.665 96.7788 296.665 91.7742V70.9859C296.665 66.6358 299.412 63.9923 303.275 63.9923C307.061 63.9923 309.885 66.6358 309.885 70.9859V103.875C309.885 108.225 307.151 110.869 303.275 110.869C300.156 110.869 297.704 109.072 296.947 106.044Z" fill="#333333"/>
<path d="M317.265 98.2926C316.315 95.4566 315.75 92.1459 315.75 87.4237C315.75 82.5987 316.225 79.3008 317.162 76.4649C319.909 68.1495 327.187 63.5171 336.916 63.5171C347.03 63.5171 354.026 68.2394 356.67 76.375C357.709 79.5831 358.184 82.804 358.184 87.0515C358.184 89.6051 356.58 91.4016 353.833 91.4016H329.536C329.163 91.4016 328.971 91.5941 328.971 91.9663C328.971 92.9159 329.163 93.7628 329.446 94.6097C330.678 98.4851 334.169 100.564 338.893 100.564C342.012 100.564 345.041 99.5245 347.492 98.2028C349.097 97.2532 350.701 96.7912 352.023 96.7912C354.77 96.7912 356.849 98.87 356.849 101.706C356.849 103.695 355.9 105.299 354.205 106.428C349.854 109.457 344.758 111.343 337.661 111.343C327.097 111.33 319.909 106.518 317.265 98.2926ZM344.579 82.6115C344.951 82.6115 345.144 82.4191 345.144 82.0469C345.144 80.5327 344.951 79.5831 344.669 78.6463C343.629 75.4383 340.792 73.6418 337.019 73.6418C333.232 73.6418 330.498 75.4383 329.459 78.6463C329.176 79.5959 328.984 80.5327 328.984 82.0469C328.984 82.4191 329.176 82.6115 329.549 82.6115H344.579Z" fill="#333333"/>
<path d="M391.558 103.874V83.0859C391.558 78.0813 389.094 74.7706 384.37 74.7706C379.647 74.7706 377.285 78.0813 377.285 83.0859V103.874C377.285 108.224 374.448 110.868 370.675 110.868C366.798 110.868 364.064 108.224 364.064 103.874V70.985C364.064 66.6349 366.811 63.9914 370.675 63.9914C373.794 63.9914 376.245 65.788 377.003 68.8164H377.092C379.364 65.8906 383.33 63.5295 389.196 63.5295C399.311 63.5295 404.791 70.6129 404.791 80.5323V103.874C404.791 108.224 402.044 110.868 398.181 110.868C394.395 110.868 391.558 108.212 391.558 103.874Z" fill="#333333"/>
<path d="M428.124 110.868C417.342 110.868 413.479 105.953 413.479 95.5593V74.9635C413.479 74.5914 413.196 74.3989 412.811 74.3989H412.439C409.038 74.3989 407.151 72.4099 407.151 69.4841C407.151 66.5584 409.038 64.5694 412.439 64.5694H412.811C413.184 64.5694 413.479 64.3769 413.479 64.0047V57.2036C413.479 52.8535 416.226 50.21 420.102 50.21C423.888 50.21 426.622 52.8535 426.622 57.2036V64.0047C426.622 64.3769 426.815 64.5694 427.187 64.5694H430.781C434.182 64.5694 436.069 66.5584 436.069 69.4841C436.069 72.4099 434.182 74.3989 430.781 74.3989H427.187C426.815 74.3989 426.622 74.5914 426.622 74.9635V95.1872C426.622 97.9333 427.662 99.0625 430.113 99.3448C434.272 99.8196 435.979 102.373 435.979 105.209C435.979 108.417 433.707 110.881 428.702 110.881H428.124V110.868Z" fill="#333333"/>
<path d="M481.623 104.722C481.623 108.212 478.696 110.868 475.013 110.868C472.741 110.868 470.854 110.021 469.622 108.315L468.492 106.711H468.402C466.041 109.636 461.125 111.343 455.451 111.343C443.733 111.343 438.059 106.056 438.059 97.3558C438.059 87.244 445.619 82.6115 456.966 82.6115H465.193C465.578 82.6115 465.758 82.419 465.758 82.0469V81.5721C465.758 77.3246 462.729 74.771 456.401 74.771C453.565 74.771 450.728 75.4383 449.034 76.0927C447.904 76.4648 446.864 76.76 445.915 76.76C442.796 76.76 440.626 74.6812 440.626 71.4731C440.626 69.4841 441.576 67.4052 444.028 66.1862C447.057 64.672 451.678 63.5427 458.018 63.5427C471.817 63.5427 478.44 70.5363 478.44 81.9699V94.4429C478.44 96.6115 478.632 97.651 479.287 98.793L480.519 100.872C481.251 102.078 481.623 103.4 481.623 104.722ZM465.745 95.0845V91.9662C465.745 91.5941 465.553 91.4016 465.181 91.4016H458.75C453.167 91.4016 450.625 93.1083 450.625 96.5987C450.625 99.8068 452.897 101.424 457.235 101.424C462.819 101.411 465.745 99.332 465.745 95.0845Z" fill="#333333"/>
<path d="M217.636 128.718C217.636 125.035 219.908 122.572 223.682 122.572H238.904C252.613 122.572 261.11 126.922 264.524 137.406C265.756 141.089 266.411 145.529 266.411 154.704C266.411 163.866 265.743 168.306 264.524 172.002C261.122 182.486 252.613 186.836 238.904 186.836H223.682C219.895 186.836 217.636 184.475 217.636 180.792V128.718ZM232.102 174.453H238.532C244.963 174.453 249.596 172.284 251.201 167.177C251.868 165.008 252.33 161.223 252.33 154.704C252.33 148.185 251.855 144.399 251.201 142.231C249.596 137.123 244.963 134.955 238.532 134.955H232.102C231.729 134.955 231.537 135.147 231.537 135.519V173.888C231.524 174.26 231.717 174.453 232.102 174.453Z" fill="#A2C61F"/>
<path d="M273.214 130.322C273.214 125.215 276.244 122.007 280.967 122.007C284.933 122.007 287.577 124.368 290.131 128.808L309.795 163.866H310.168V128.718C310.168 124.471 312.722 122.007 316.495 122.007C320.269 122.007 322.823 124.458 322.823 128.718V179.085C322.823 184.192 319.794 187.4 315.071 187.4C311.105 187.4 308.46 185.039 305.906 180.599L286.242 145.631H285.87V180.689C285.87 184.936 283.316 187.4 279.529 187.4C275.756 187.4 273.202 184.949 273.202 180.689V130.322H273.214Z" fill="#A2C61F"/>
<path d="M332.604 129.372C332.604 124.932 335.531 122.007 339.6 122.007C343.566 122.007 346.505 124.932 346.505 129.372V180.021C346.505 184.461 343.579 187.387 339.6 187.387C335.531 187.387 332.604 184.461 332.604 180.021V129.372Z" fill="#A2C61F"/>
<path d="M70.6605 98.8066C69.6722 98.8066 68.6582 98.5371 67.7469 97.9854C65.1156 96.3813 64.2942 92.9423 65.9114 90.3117C70.6862 82.5096 79.0036 77.8643 88.1424 77.8643C91.2229 77.8643 93.7258 80.3666 93.7258 83.4464C93.7258 86.5261 91.2229 89.0284 88.1424 89.0284C82.9184 89.0284 78.1564 91.6975 75.4225 96.1632C74.37 97.857 72.5345 98.8066 70.6605 98.8066Z" fill="#A2C61F"/>
<path d="M79.6062 104.26C78.528 104.26 77.6681 103.298 77.8606 102.245C78.8104 97.1125 83.3028 93.2371 88.7065 93.2371C94.1102 93.2371 98.6026 97.1125 99.5524 102.245C99.745 103.298 98.885 104.26 97.8068 104.26H79.6062Z" fill="#A2C61F"/>
<path d="M139.253 104.26C138.175 104.26 137.315 103.298 137.507 102.245C138.457 97.1125 142.949 93.2371 148.353 93.2371C153.757 93.2371 158.249 97.1125 159.199 102.245C159.391 103.298 158.532 104.26 157.453 104.26H139.253Z" fill="#A2C61F"/>
<path d="M119.882 155.679H106.379C103.298 155.679 100.796 153.177 100.796 150.097C100.796 147.017 103.298 144.515 106.379 144.515H119.882C120.896 144.515 121.73 143.693 121.73 142.667V103.901C121.73 89.5412 133.423 77.851 147.786 77.851C150.866 77.851 153.369 80.3533 153.369 83.4331C153.369 86.5128 150.866 89.0151 147.786 89.0151C139.571 89.0151 132.884 95.7007 132.884 103.913V142.68C132.884 149.853 127.044 155.679 119.882 155.679Z" fill="#A2C61F"/>
</svg>
